<svg id="Capa_1" data-name="Capa 1" xmlns="http://www.w3.org/2000/svg" viewBox="0 0 501.68 187.15"><defs><style>.cls-1{fill:#0d0e0e;}.cls-2{fill:#9d9d9d;}.cls-3{fill:#3f3f3f;}.cls-4{fill:#5a5959;}.cls-5{fill:#888989;}.cls-6{font-size:23.95px;fill:#1d1d1b;font-family:Helvetica-Bold, Helvetica;font-weight:700;}</style></defs><path class="cls-1" d="M181.11,14.08q7.41-7.56,18.83-7.56,15.3,0,22.37,10.14a22.14,22.14,0,0,1,4.19,11.43H213.7a17.47,17.47,0,0,0-3.13-6.65q-3.42-4-10.14-4a12.5,12.5,0,0,0-10.79,5.63Q185.7,28.72,185.69,39t4.17,15.44a13.07,13.07,0,0,0,10.59,5.13q6.59,0,10-4.41a19.43,19.43,0,0,0,3.17-7.1h12.72A27.64,27.64,0,0,1,218,64.37q-6.76,6.27-17.33,6.27-13.06,0-20.55-8.48T172.6,38.81Q172.6,22.78,181.11,14.08Z"/><path class="cls-1" d="M268.32,23.89a13.37,13.37,0,0,1,5.61,4.45,11.87,11.87,0,0,1,2.27,5.22,63.74,63.74,0,0,1,.42,8.76V68.94h-12.1V41.36a12.27,12.27,0,0,0-1.23-5.91c-1.08-2.11-3.11-3.16-6.11-3.16a8.35,8.35,0,0,0-7.07,3.14q-2.42,3.14-2.42,9V68.94H235.85v-61h11.84V29.5a14.41,14.41,0,0,1,5.94-5.5,16.7,16.7,0,0,1,7.1-1.56A19.2,19.2,0,0,1,268.32,23.89Z"/><path class="cls-1" d="M312.91,22.58l1,.07V34.78c-.75-.08-1.41-.14-2-.17l-1.41,0q-7.15,0-9.6,4.66-1.38,2.61-1.38,8.06V68.94H287.63V23.64h11.3v7.9a24.83,24.83,0,0,1,4.78-6.19,13,13,0,0,1,8.64-2.79Z"/><path class="cls-1" d="M333.05,18.24H321V7.31h12Zm-12,5.4h12v45.3H321Z"/><path class="cls-1" d="M353.7,54.48A7.82,7.82,0,0,0,355.33,59q2.21,2.37,8.18,2.37a12.45,12.45,0,0,0,5.58-1,3.31,3.31,0,0,0,2.06-3.11,3.37,3.37,0,0,0-1.66-3q-1.67-1-12.39-3.57-7.73-1.91-10.88-4.78c-2.1-1.88-3.16-4.6-3.16-8.14A14.13,14.13,0,0,1,348,26.86q4.94-4.5,13.89-4.51,8.49,0,13.84,3.39t6.15,11.7H370a7,7,0,0,0-1.29-3.62c-1.31-1.6-3.53-2.41-6.67-2.41-2.58,0-4.42.41-5.52,1.21a3.44,3.44,0,0,0-1.64,2.82,3.07,3.07,0,0,0,1.75,3q1.74,1,12.36,3.29,7.08,1.66,10.61,5a11.39,11.39,0,0,1,3.49,8.51,13.76,13.76,0,0,1-5,11q-5,4.25-15.51,4.25-10.69,0-15.8-4.5a14.67,14.67,0,0,1-5.1-11.49Z"/><path class="cls-1" d="M216.39,122.82Q211,127.31,201,127.3H188.27v22H175.55V88.08h26.3q9.1,0,14.51,4.73t5.4,14.67Q221.76,118.32,216.39,122.82Zm-9.77-22.07a10.3,10.3,0,0,0-6.82-2H188.27v18H199.8a9.78,9.78,0,0,0,6.82-2.2q2.43-2.2,2.43-7T206.62,100.75Z"/><path class="cls-1" d="M268.85,143.79q-5.75,7.08-17.42,7.08T234,143.79a28.13,28.13,0,0,1,0-34q5.74-7.19,17.41-7.18t17.42,7.18a28.13,28.13,0,0,1,0,34Zm-9.48-6.55q2.79-3.69,2.79-10.5c0-4.53-.93-8-2.79-10.47a10.51,10.51,0,0,0-16,0c-1.87,2.44-2.8,5.94-2.8,10.47s.93,8,2.8,10.5a10.5,10.5,0,0,0,16,0Z"/><path class="cls-1" d="M295.15,149.33H283.31V88.08h11.84Z"/><path class="cls-1" d="M324.64,121.78a19.06,19.06,0,0,0,4.73-1c1.7-.72,2.56-1.84,2.56-3.37a4,4,0,0,0-2-3.84,12.37,12.37,0,0,0-5.75-1.06q-4.26,0-6,2.08a8.57,8.57,0,0,0-1.68,4.15H305.08a17.29,17.29,0,0,1,3.34-9.76q4.71-6,16.19-6a29,29,0,0,1,13.28,3q5.79,3,5.8,11.14v20.78c0,1.44,0,3.18.08,5.23a6.48,6.48,0,0,0,.71,3.16,4.16,4.16,0,0,0,1.74,1.37v1.75H333.34a13.33,13.33,0,0,1-.75-2.58c-.14-.8-.25-1.72-.33-2.74a24.68,24.68,0,0,1-5.69,4.53,17.14,17.14,0,0,1-8.69,2.2,15,15,0,0,1-10.22-3.51q-4-3.51-4-9.95,0-8.35,6.49-12.1,3.56-2,10.46-2.9Zm7.24,5.52a12.27,12.27,0,0,1-2.29,1.15,19.45,19.45,0,0,1-3.18.81l-2.7.5a17.48,17.48,0,0,0-5.44,1.62,5.39,5.39,0,0,0-2.8,5,5.25,5.25,0,0,0,1.71,4.39,6.49,6.49,0,0,0,4.16,1.35,12.43,12.43,0,0,0,7.15-2.24q3.27-2.25,3.39-8.19Z"/><path class="cls-1" d="M390.56,106.63q4.44,3.68,4.45,12.2v30.5H382.87V121.78a12.56,12.56,0,0,0-.95-5.49q-1.73-3.5-6.6-3.49-6,0-8.21,5.11a17.68,17.68,0,0,0-1.15,6.9v24.52H354.12V104.12h11.47v6.6a19.94,19.94,0,0,1,4.3-5,14.9,14.9,0,0,1,9.23-2.75Q386.11,103,390.56,106.63Z"/><path class="cls-1" d="M433.11,120.28a10.43,10.43,0,0,0-1.71-4.57q-2-2.74-6.2-2.74-6,0-8.21,5.94a24.62,24.62,0,0,0-1.16,8.37,22.6,22.6,0,0,0,1.16,8q2.13,5.66,8,5.65c2.78,0,4.75-.74,5.91-2.24a11.12,11.12,0,0,0,2.13-5.82h12.09a19.87,19.87,0,0,1-3.91,10.23q-5.56,7.77-16.51,7.77t-16.1-6.49q-5.16-6.48-5.16-16.81,0-11.65,5.7-18.13T424.86,103q8.53,0,14,3.83t6.43,13.5Z"/><path class="cls-1" d="M491.12,143.79q-5.73,7.08-17.41,7.08t-17.41-7.08a28.13,28.13,0,0,1,0-34q5.73-7.19,17.41-7.18t17.41,7.18a28.09,28.09,0,0,1,0,34Zm-9.47-6.55q2.78-3.69,2.78-10.5c0-4.53-.93-8-2.78-10.47a10.51,10.51,0,0,0-16,0c-1.87,2.44-2.8,5.94-2.8,10.47s.93,8,2.8,10.5a10.5,10.5,0,0,0,16,0Z"/><path d="M388.65,13.69a13.77,13.77,0,1,1,13.71,13.78A13.74,13.74,0,0,1,388.65,13.69ZM402.5,3.77a10,10,0,1,0-.21,19.94,10.09,10.09,0,0,0,10.13-9.87A10.08,10.08,0,0,0,402.5,3.77Z"/><path d="M397.7,20V7.37c2.14.09,4.25,0,6.31.33a3.71,3.71,0,0,1,3.24,3.05,4.55,4.55,0,0,1-1.81,5l3.1,4.26c-1.12,0-2.09,0-3.05,0-.19,0-.4-.25-.54-.43A9.57,9.57,0,0,1,403.8,18c-.72-1.49-1.9-1.74-3.46-1.36V20Zm2.66-6c1.14-.09,2.16-.1,3.14-.28a1.52,1.52,0,0,0,1.24-1.63c0-.83-.26-1.55-1.1-1.71a28.94,28.94,0,0,0-3.28-.31Z"/><path class="cls-2" d="M62.38.26C62.61,2.61,64.76,1.7,66,2.34c.13,1.06-1.43,1.05-1.27,2.07.7.59.56,1.43.63,2.2-2.65-.58-3.89.22-3,3.09a2.24,2.24,0,0,1,0,.58c-.48,1.55-1.45,2-2.89,1.22-.24-1.47-2.09-2.15-1.86-3.88.07-.55-.39-.85-1-.8s-.72.44-.81,1C55,13,51.3,15.92,46.48,15.29c-1.5.35-3,.73-4.5,1a4,4,0,0,0-2.82,1.4c-1.31,1.52,2.92,1.24.43,2.31-.6.26-.2.68.14.78,1.93.54.9,1.77.71,2.81-2.09,1.91-2.15,5.57-5.56,6.38-.47.11-.24.83.13,1.22.46,1.35-.64,2.46-.56,3.75-1.51,1.14.82,2.55-.26,3.72a.27.27,0,0,0-.32.11c-2.64.5-4,4.22-2.49,6.85.53.91,1.44,1.73.81,2.89-1,1.92-.82,4.13-1.44,6.08-.52,1.64.2,3.52-1.09,4.94-.75.09-1,.72-1.36,1.24-2,0-2.52-1-1.63-2.64.72-1.34.33-2.25-.43-3.47-2.44-3.93-1.57-6.74,2.6-8.52,1.09-.47.75-1,.46-1.56-.85-1.61-.5-3.11-.19-4.83a8.28,8.28,0,0,0-2-7.52c-1.33-1.39-1.69-3.37-3.26-4.84C20.4,24.15,17.77,20,12.55,18.89c-1.6-.35-3-2.23-4.21-3.59a18.63,18.63,0,0,0-8.27-5c0-2.67.14-5.35,0-8C-.11.55.37.2,2.15.21,21.53.29,40.91.26,60.3.26ZM47.49,3.09c-1.44-.38-2.1.05-2.24,1.14s.09,2.35,1.48,2.43a11.46,11.46,0,0,1,4.73,1.39c1.84,1,2.23-1,3-2,.57-.74.38-1.4-.52-1.53C51.65,4.2,49.6,2.66,47.49,3.09Z"/><path class="cls-2" d="M111.59,56.62c1.88,2.51,3.63,5.1,6.33,6.9,3.37,2.26,6.6,4.71,9.89,7.08.78.56,1.73.87,1.08,2.27a11.51,11.51,0,0,0,4.51,14.62c.76.46,1.27.82,1.1,1.8-.26,1.39.7,1.86,1.78,2.29,2.43,1,2.68,2,.62,3.3-2.39,1.52-1.74,2.34.29,3.43a8.7,8.7,0,0,0,7.92.38c1-.43,1.9-.12,3.08-.38-1.38-2.42-2.28-5-4.05-7.06-.83-1-1.56-2.09-.73-3.17s2.14-.54,3.16.17a5.48,5.48,0,0,0,3.63,1v26.11L141,116.64c-2.61-1.91-5.85-1.49-8.74-2.38-1.08-.33-2-.52-.86-1.91,2-2.51,1.69-3.15-1.15-4.6-3.51-1.78-7.37-1-11-1.84-1.3-.31-2.79-.48-3-1.88-.67-3.56-3-5.94-5.41-8.25a2.93,2.93,0,0,1-.89-2.41c2-1.23,2.34-3.19,2.27-5.31l.35-1.92h0a16.17,16.17,0,0,0,1.38-10.29c-.52-3.09-2.2-5.57-5.45-4.54.3-1.44,1.21-3.09.79-4.29-1.35-3.92-.83-7.29,1.82-10.4h.52Z"/><path class="cls-2" d="M150.2,32.3c-1.59-.39-2.86-.7-2.63-3,.19-2-1.8-2.4-3.44-2.09-3.39.65-6.58.62-9.76-1.08-1.79-1-4.23.2-5.92-2s-1.6-3.44.45-4.91c.88-.63,2.06-1.3,1.41-2.55a3,3,0,0,0-3.11-1.82c-1.74.39-3.85-.33-5.19,1.57a1,1,0,0,1-1.56.05c-.38-.47.06-.88.43-1.24,1.38-1.34.57-2.2-.79-2.5-2.72-.6-5.15-1.94-7.76-2.76-3.93-1.24-5.09-4.92-2.48-8.38a6.55,6.55,0,0,0,.59-1.32c12.66,0,25.32,0,38,0,1.49,0,1.83.33,1.82,1.82C150.17,12.12,150.2,22.21,150.2,32.3Z"/><path class="cls-3" d="M85.52,151h-19a5.72,5.72,0,0,0-.8-2.82c-.52-1.06-.31-2.23.7-2.53,2.63-.8,3.22-2.4,2.56-4.86a1.78,1.78,0,0,1,.53-1.33,3.85,3.85,0,0,0,.38-4.71c-1.47-2.29-1.29-5.59-4.24-7a2,2,0,0,1-.88-1.79c-.16-3.21-2.61-4.85-5-5.55s-3-1.91-3.36-3.82l0,0c2.82,1.71,5.87,3.15,8.41,5.21S71,125,72,129.06c.31,1.3.88,4.15,3.59,4.09,3.27-.08,7.15,1.21,8.54-3.51a.76.76,0,0,1,.38-.44c4-1.4,5.12-5.24,7.2-8.27.44-.65.92-1.57,1.54-1.73,2.28-.58,3.14-2.64,3.8-4.25,1-2.37,2.08-2.39,3.9-1.37a89.66,89.66,0,0,1-4.56,7.85c-.88,1.22-1.47,2.11-1,3.65,1,3.65,2.25,7.3.93,11.17a1.59,1.59,0,0,0,.56,1.6c.65.65,1.87,1.08,1.34,2.32-.64,1.5-1.93.79-3.07.81s-3.23.28-3.24,1.46c0,3.21-2.76,3.94-4.38,5.69C86.68,149,85.6,149.64,85.52,151Z"/><path class="cls-4" d="M131.21,151H117c-.13-.54-.3-1.09-1-1-.55.07-.66.54-.76,1H114c.08-1.28-2.67-2.94.57-3.83.64-.18.57-1-.1-1.36-.94-.5-1.92-.92-2.89-1.37.26-2.31,2.49-3.1,3.64-4.73,3.66-.78,2.73-5.2,5.56-6.59-1.06-1.09-2.77-.67-3.25-2.16a6.6,6.6,0,0,1,4.8.78c5.76,3.67,12.44,4,18.91,5.12-.2,1.88-2.53.41-3.21,2.07,4.21-.12,8.21.86,12.17-.39,0,3.76,0,7.52,0,11.27,0,1-.18,1.27-1.22,1.22-2.17-.1-4.35,0-6.52,0,1.5-1.54.6-4.32,2.89-5.51a2.46,2.46,0,0,0,1.26-2.77c-.29-1.08-1.65-.89-2.52-1.05-1.2-.21-3.51-.5-3.46.37.15,2.49-3,2.7-2.76,5.09-.88-2.37-3.07-2.38-4.77-3-1.54-.58-2.91.29-3.82,1.56s-.35,2.19.73,3A3.27,3.27,0,0,1,131.21,151Zm-8.93-9.68c2.65,3,4.69.87,6.84-.51.37-.24.7-.49.42-.89s-.69-.64-.91-.56C126.52,140.09,123.8,139,122.28,141.29Z"/><path class="cls-4" d="M56.42,116.58c.39,1.91,1,3.14,3.36,3.82s4.84,2.34,5,5.55a2,2,0,0,0,.88,1.79c3,1.39,2.77,4.69,4.24,7a3.85,3.85,0,0,1-.38,4.71,1.78,1.78,0,0,0-.53,1.33c.66,2.46.07,4.06-2.56,4.86-1,.3-1.22,1.47-.7,2.53a5.72,5.72,0,0,1,.8,2.82H55.85c-1.09-4.14-3-8.25-.6-12.56,1.66-3.23.48-6.57.29-9.84-.23-4-.88-8-1.35-12Z"/><path class="cls-4" d="M85.52,151c.08-1.33,1.16-2,2-2.84,1.62-1.75,4.34-2.48,4.38-5.69,0-1.18,2-1.43,3.24-1.46s2.43.69,3.07-.81c.53-1.24-.69-1.67-1.34-2.32a1.59,1.59,0,0,1-.56-1.6c1.32-3.87.06-7.52-.93-11.17-.42-1.54.17-2.43,1-3.65a89.66,89.66,0,0,0,4.56-7.85c0-.39,0-.79,0-1.18,1.22-.94,2.61-2.61,1.87-3.63-2.14-3,.41-3.51,1.89-4.71l.38.62-.81,4.08a6.9,6.9,0,0,0-.37,3.48c.34,4,.74,8,1.11,12a1.38,1.38,0,0,0-1.16,1.49c-.13,4.36-.59,8.75-.26,13.08.21,2.61,0,4.23-2.44,5.59A13.74,13.74,0,0,0,95.61,151Z"/><path class="cls-5" d="M95.61,151a13.74,13.74,0,0,1,5.59-6.55c2.42-1.36,2.65-3,2.44-5.59-.33-4.33.13-8.72.26-13.08a1.38,1.38,0,0,1,1.16-1.49,12.35,12.35,0,0,0,8.74,7.64c4,3,4,3,1.45,7.21-.09.14,0,.38,0,.57-1.15,1.63-3.38,2.42-3.64,4.73a52.28,52.28,0,0,1-7.33,4.81C101.93,149,99.4,148,98,151Z"/><path class="cls-3" d="M131.21,151a3.27,3.27,0,0,0-1.17-2.3c-1.08-.84-1.58-1.85-.73-3s2.28-2.14,3.82-1.56c1.7.64,3.89.65,4.77,3-.22-2.39,2.91-2.6,2.76-5.09,0-.87,2.26-.58,3.46-.37.87.16,2.23,0,2.52,1.05a2.46,2.46,0,0,1-1.26,2.77c-2.29,1.19-1.39,4-2.89,5.51Z"/><path class="cls-1" d="M55.25,138.41c-2.36,4.31-.49,8.42.6,12.56h-9.5c0-2.05,1-4,.52-6.1Z"/><path class="cls-2" d="M141,116.64l9.25-1.27v21.36c-1.45.1-1.13-1.11-1.39-1.89-.07-.57-.15-1.15-.22-1.73-.37-3.12.18-6.29-.5-9.39,0-.79,0-1.58.11-2.37.23-2.48-.78-3.51-3.3-3-1,.21-2,.13-2.92.36s-1.22-.27-1.37-1Z"/><path class="cls-3" d="M104.25,149.22a52.28,52.28,0,0,0,7.33-4.81c1,.45,2,.87,2.89,1.37.67.36.74,1.18.1,1.36-3.24.89-.49,2.55-.57,3.83H103.92C103,150.19,104.11,149.79,104.25,149.22Z"/><path class="cls-3" d="M46.87,144.87c.49,2.09-.56,4-.52,6.1H36.86a12.57,12.57,0,0,1,6.54-4A7.4,7.4,0,0,0,46.87,144.87Z"/><path class="cls-5" d="M148.81,134.84c.26.78-.06,2,1.39,1.89v1.78c-4,1.25-8,.27-12.17.39.68-1.66,3-.19,3.21-2.07,1.64,0,3.29-.12,4.92,0,1.29.07,1.75-.52,1.78-1.68Z"/><path class="cls-2" d="M.07,136.14c2.35.31,4,2.37,6.39,2.65.86.1.6,1.13-.12,1.51-1.25.66-2.67,1.14-3.72-.16a2.85,2.85,0,0,0-2.55-1Z"/><path class="cls-2" d="M104.25,149.22c-.14.57-1.26,1-.33,1.75H98C99.4,148,101.93,149,104.25,149.22Z"/><path class="cls-3" d="M115.19,151c.1-.45.21-.92.76-1,.72-.1.89.45,1,1Z"/><path class="cls-4" d="M47.59,100.54c0-.34-.06-.68-.08-1a13.63,13.63,0,0,0-.95-5.47c-.05,1.9-.67,3.16-2.76,2.84-2.95-3.45-6.7-6.4-6.82-11.58,0-1.52.5-2.89.56-4.36l1-.07c.51.8.25,1.67.28,2.53,0,1.31.56,2.28,2.18,1.72.73,1.23-.17,3.11,1.59,3.93.78,1-1.08,3.3,1.59,3.34,2.1,0,2.26-1.46,2.14-3.06l-.55-1.17L45.73,87c2.08-.71,3.53-2,3.77-4.3h4.32a1.14,1.14,0,0,1-1,.65c-.77.07-1.73,0-1.89,1s.83,1.28,1.47,1.6a3.9,3.9,0,0,0,3.08.32c1.46-.48,3-.77,4.48-1.14-.42,1.62,2.07.94,1.88,2.38a2.12,2.12,0,0,0-1.84.7c-1.83-.33-2.68.62-3,2.29-1.06,1.36-.45,2.42.74,3.18.93.59,1.89.55,2.25-.8,2.56.66,4.7-1.27,7.16-1.16A1.46,1.46,0,0,0,68,92.79c3.69,2.2,9.57,1.7,13.42-1.17l5.28.65a1.24,1.24,0,0,0,1.24,1.12h0c.12,1.45,1.19,2.19,2.25,2.91.65.44,1.48.84,1.62,1.62.37,2.08,1.27,2.87,3.45,2.13,1.3-.44,2.2.64,2.87,1.62s-.21,1.65-.82,2.23c-4.67,4.4-9.68,7.83-16.59,5.65H79.58a3,3,0,0,0-3-1.19H75.44c0-.27,0-.54,0-.8,1.23-.88,2.38-.31,3.62.09a17.88,17.88,0,0,0,6.6,1.17c1.22-.07,2.13-.5,2.23-1.85s.1-2.25-1.47-3.06c-2.81-1.44-5.78-.75-8.63-1.28.56-1.16,1.66-.78,2.59-.95s2.19-.24,2.75-.85c1-1.11,1.54-2.56,3.26-.75.51.53.83-.49,1.09-1,.77-1.45-.14-2.44-.94-3.45-1-1.24-2.16-2.06-3.83-1.36a14.23,14.23,0,0,1-6.09.93,27.2,27.2,0,0,1-6.44.09c-1.77,0-3.85-.82-5,1.21-.88,1.52.52,2.73,1.1,4,.81,1.76,2.47,1.1,3.86,1.19h1.16l1.78,0a3.88,3.88,0,0,1,0,.59c-2,1.31-4.39.56-6.55,1.12-1.47.39-5,3.76-5,5.07.1,2.21,2.48.4,3.14,1.7a1.28,1.28,0,0,1,.07.28,1.58,1.58,0,0,1-2.09.52c-3.33-1.59-6.89-2.86-8.72-6.48-.39-.77-1-1.4-.71-2.42.27-.82.61-2-.32-2.39-1.29-.6-1.17.9-1.62,1.52-.29.39-.51.86-1.08.87s-.67-.33-.61-.78C50,98.37,48.3,100.72,47.59,100.54Zm0-11.88c0,1.65,0,2.93,0,4.2A1.5,1.5,0,0,0,49,94.46a1.91,1.91,0,0,0,1.78-.87c.45-.72,0-1.31-.47-1.84Z"/><path class="cls-2" d="M28.92,92c-.23,1.37-1.2,1.48-2.23,1.23-2-.47-3.8-.78-5.7.35-.76.45-1.75-.12-2.52-.52-2.45-1.26-4.88-2.58-7.28-3.93-1-.55-1.95-1.4-1.42-2.59a2.61,2.61,0,0,1,3.3-1.26c4.36,1.35,8.91,2.07,13.16,3.85A4.26,4.26,0,0,1,28.92,92Z"/><path class="cls-3" d="M47.59,100.54c.71.18,2.39-2.17,2,.79-.06.45.11.78.61.78s.79-.48,1.08-.87c.45-.62.33-2.12,1.62-1.52.93.43.59,1.57.32,2.39-.33,1,.32,1.65.71,2.42,1.83,3.62,5.39,4.89,8.72,6.48a1.58,1.58,0,0,0,2.09-.52c2,.58,3.38-1.5,5.31-1.07-2.29,3.13-8,4.27-10.93,1.92a17.31,17.31,0,0,0-3.32-1.74c-.61-.31-1.18-.86-1.83-.16s.14,1.12.09,1.59c-.25,2.33,2.55,3.27,2.38,5.5l0,0-2.23,0A15.17,15.17,0,0,0,51,109.38,14.73,14.73,0,0,1,47.59,100.54Z"/><path class="cls-2" d="M29.37,97c2.27.24,5.08-.16,4.09,3.78-.24,1,.73,1.53,1.41,2.09s1,1.64.51,1.7c-2.47.33-3.92,2.67-6.33,2.94a1,1,0,0,1-.55-.19c-.67-.4-1.94-1-1.88-1.22.67-2.9-2.37-4.64-2.36-6.76C24.28,97.36,27.13,96.79,29.37,97Z"/><path class="cls-2" d="M4.84,93A20.94,20.94,0,0,1,17,97c.68.51,1.61,1.15,1.22,2.15-.45,1.17-1.49.36-2.3.43-4.23.37-8-1.87-12.09-2.1-1.26-.07-2.49-.6-2.2-2.14S3.28,93.06,4.84,93Z"/><path class="cls-2" d="M12.28,76.94c-.19,1.81-3,4.19-4.76,3.81C5.22,80.25,5.26,78,5,76.23c-.21-1.3,3.15-2.69,5.37-2.29C12.16,74.26,12.05,75.82,12.28,76.94Z"/><path class="cls-2" d="M31.45,78.6a1.16,1.16,0,0,1-1.05-1.49,2.62,2.62,0,0,0-.85-2.66c-3.78-2.67-2.06-6.72-2.71-10.14a2.14,2.14,0,0,1,1.6-2.49c.94.49.65,1.26.44,2-.33,1.13.25,1.59,1.24,1.79.51,1.57-.83,2.72-1,4.14v1.33c.83-.15.47-.84.59-1.31,1.35.84,1.28,2.9,3,3.44l0,.67-.69,1C30.77,76,31.7,77.38,31.45,78.6Z"/><path class="cls-5" d="M38.58,80.88l-1,.07c-.95-.69-2.13.55-3.07-.34.41-1.87-2.45-2.44-1.77-4.42,2.25.36,3.68,2.48,6,2.82.46.07.52.77.47,1.29Z"/><path class="cls-2" d="M32.08,85.19c-1.85-.13-3.31.55-4.85.85-.61.12-1.21.18-1.45-.55s.2-1.22.92-1.55c2.15-1,4.24-.36,6.35.12.39.09.75.41.58.86C33.22,86,32.43,85,32.08,85.19Z"/><path class="cls-3" d="M43.8,96.89c2.09.32,2.71-.94,2.76-2.84a13.63,13.63,0,0,1,.95,5.47c-.72-.48-1.48-.18-2.23-.11C43,99.6,42.75,98.64,43.8,96.89Z"/><path class="cls-5" d="M30.12,65.6c-1-.2-1.57-.66-1.24-1.79.21-.73.5-1.5-.44-2,0-.34-.09-.68-.14-1,.36-.52.61-1.15,1.36-1.24A2.12,2.12,0,0,0,31,60.77C31.37,62.5,29.66,63.84,30.12,65.6Z"/><path class="cls-3" d="M32.7,76.19c-.68,2,2.18,2.55,1.77,4.42l-1.17-.24-1.21-1.13-.64-.64c.25-1.22-.68-2.63.6-3.69l.68.74A4.89,4.89,0,0,0,32.7,76.19Z"/><path class="cls-2" d="M32.09,79.24l1.21,1.13C31.88,81.09,32.28,79.84,32.09,79.24Z"/><path class="cls-1" d="M30.12,65.6c-.46-1.76,1.25-3.1.9-4.83.49-.14,1.09-.43,1-.94-.79-3.26-.12-5.9,2.74-8,.73-.52,0-1.3-.69-1.89-.95-.85-.24-2.07.58-1.77,2.34.87,2.05-.26,1.75-1.76-.18-.91.05-1.56,1.23-1.4.64.09,1-.47.62-.88-1.56-1.47-.39-5.1-3.94-5-.13,0-.27-.26-.41-.4a.27.27,0,0,1,.32-.11c2.94.29,1.79-2,2.11-3.36l0,0C39,33.94,41,32.23,41,28.88c0-1.53,1.12-2.41,2.74-2.52,1.1-.08,2.44-.34,2.48-1.61.08-2.58,1.94-4.18,3-6.22h0c.6.6,1.81.37,2.05,1.41.16.67.43,1.21,1.12.78A1.24,1.24,0,0,0,52.83,19c-.37-.52-1.12-.77-1.21-1.54l.67-1.13c1.09.9,2-.41,3-.24a19.37,19.37,0,0,0,9.07-.88c.36-.11,1-.38,1-.28,1.94,2.84,4.83,1,7.36,1.77l-.3-2.83,1.21.08c.12.26.17.65.38.77,1.93,1.11,4.53,1.19,5.6,3.68.1.23.9.17,1.38.22,2.6.28,5.15-1.7,7.82-.12.4.24.71-.51.84-1h0l1.22,0c1.3-.06,2.36.62,3.53,1s2.71,1.29,3.48-.74l1.11.17c-.61,1.2-.08,2.43-.08,3.64a4.22,4.22,0,0,0-1.14,4.76c.82,1.67,2.1-.57,3.29-.5a7.74,7.74,0,0,0,1.17-.12l0-.07c0,.44-.1.88-.14,1.32.13,1.16.63,2.23.41,3.48s0,2.42,1.69,2.54l.21.57a2.26,2.26,0,0,0,1.77,2.53A2.71,2.71,0,0,0,109,38.89l3.21,3.5c.42,1.46.48,2.8-1.15,3.61-.4-.08-.6.12-.68.49h0l-1.16.44-1.18-1.57c.55-.95,2.59-1.16,1.85-2.53a3.8,3.8,0,0,0-3.06-1.64c-1,.11-.5,1.64-.35,2.56a10.33,10.33,0,0,0,.51,1.67,2.15,2.15,0,0,0,2,2.42l.33,1.6a1.34,1.34,0,0,0-.19.44c-1.14.8-3.74,1.09-1.08,3.18a3.75,3.75,0,0,0,0,.58c-.22.71-.08,1.24.72,1.43a.4.4,0,0,0,.33.09,2.27,2.27,0,0,0,1.93,1.46c-2.65,3.11-3.17,6.48-1.82,10.4.42,1.2-.49,2.85-.79,4.29l-1.32.11c-.5-1,.11-2.29-.87-3.17-.75.63-.44,1.37-.58,2l-1.1.1c.87-4.8.9-9.48-1.89-13.77,1.21-.09,1.3-.83,1.07-1.81a11.13,11.13,0,0,0-2.15-4.91c.08-1.29-.68-1.67-1.8-1.65-.23-.93-.93-1.13-1.76-1.14l0,0a5.27,5.27,0,0,0-5.43-5.26c-2.37,0-4.74,0-7.1,0-1.84.65-2.22-1.39-3.45-1.86-.23-.37-.47-.74-.7-1.12.47-4,.29-7.76-3.9-10C77.05,32.54,75.12,36,74.8,40l-2.3.12c-1.91-1-3-4-6-2.44h-.59a2.83,2.83,0,0,0-2.41-1.73h0c2.8-.65,5-1.72,4.21-5.28-.27-1.24-.5-2.46-1.91-1.13-2.41,2.27-5.3,2.69-8.39,2.92a5.94,5.94,0,0,0-2.89,1.39c-2.41,1.87-2.28,4.26.19,5.65l-.31,1.12c-1.5,1.06-1.72,2.94-2.76,4.3-.7.93.09,1.36.82,1.71A4.06,4.06,0,0,0,51.74,49c-1,0-1.61.74-2.36,1.23-1.21.45-2.36-2.76-3.61-.07-2.13,1.58-2.44,4.28-3.83,6.33-.07.1.39.57.6.87l-.3,2.78.36,1.24.18,10.15,0,2.88L43,75.51c-.23.59-.88,1.13-.27,1.85l0,1.14c-2.13.28-1.59-1.89-2.58-2.78-.66,1-2,2.07-2.73,1.16s.16-2.15,1.63-2.72c1.66-.65.82-2.07.47-3.23-.12-.86.13-1.77-.37-2.51-1.87,2-4.43,1.61-6.79,1.8l.42,3c-1.69-.54-1.62-2.6-3-3.44l-.58,0C29.29,68.32,30.63,67.17,30.12,65.6Z"/><path class="cls-2" d="M99,17.91l-1.11-.17c-2.15-1.37-4.2-3.41-6.89-1a3,3,0,0,0-1.27-1.93c-2-1.32-2.32-3-1.26-5.08,1.34,1,3.16,1.27,4.21,2.64.58.75,1.11.5,1.78.45a10.46,10.46,0,0,1,7,1.64,6.23,6.23,0,0,1,3.06,4.62c.14.67.35,1.32.53,2-.11,1.16-1,1.14-1.8,1.15l-.13-.15.16.12c1.11.72,2.2,1.29,2.84-.52.2,0,.46,0,.57-.08,3.13-3,5,.26,7.18,1.55,1.32.8.68,2.54.54,3.83s-1.39,1.09-2.34,1.13c-.17-4.68-.17-4.68-8.38-3.89.09.57,2.43.06.71,1.48l-2.16-.08,0,.07a1.81,1.81,0,0,0-1-2.22c-.61-1.79-.83-3.43,2-3.88-1.33-.86-1.56-2.92-3.43-1.55l-.41-1c-.31.24-.62.48-.41.94Z"/><path class="cls-5" d="M104.46,25.7c1.72-1.42-.62-.91-.71-1.48,8.21-.79,8.21-.79,8.38,3.89a4.14,4.14,0,0,1-1.34,3.05c-1.79,1.69-1.27,5.69.76,7.17l1.75,2.28c0,.83,0,1.6-1.08,1.78L109,38.89c.23-1.38-1.32-2.2-1.12-3.56.11-3-2.29-1.18-3.42-1.8l-.21-.57c-.61-1.83.39-3.55.34-5.34l-.07,0c0-.6,2.38-.37.57-1.61Z"/><path class="cls-3" d="M88.48,9.75c-1.06,2.06-.78,3.76,1.26,5.08A3,3,0,0,1,91,16.76l-.12.69-1.22,0-.15-.15.16.14c-.13.48-.44,1.23-.84,1-2.67-1.58-5.22.4-7.82.12-.48-.05-1.28,0-1.38-.22C78.57,15.86,76,15.78,74,14.67c-.21-.12-.26-.51-.38-.77l4.73-2.73,1-.45c2.13,1,.57,2.29,0,3.35,1.74,1.07,2.59-.77,3.93-.79,2.49,0,3.17-1.19,2.18-3.46,1.62.33,1.64-1.28,2.4-2Z"/><path class="cls-2" d="M66.51,6.84c1.38-2.78,4.13-1.37,6.11-1.59S76,4.92,77.49,3.44c1.19-1.21,2.88-1.67,3.28,1h0c-1.21.22-1.2,1.11-1.13,2.05C79,7.3,78.21,8.09,78.35,9.3l-1.14.44a4.45,4.45,0,0,0-3.47-.68C72,7.57,70.17,8.7,68.36,8.7,68.29,7.54,65.92,8.67,66.51,6.84Z"/><path class="cls-5" d="M66.51,6.84c-.59,1.83,1.78.7,1.85,1.86.66.36,1.22.77,1.13,1.64-2.39,2.34-4.75.62-7.12-.06a2.24,2.24,0,0,0,0-.58c-.85-2.87.39-3.67,3-3.09Z"/><path class="cls-5" d="M111.07,56.63a2.27,2.27,0,0,1-1.93-1.46c1.11-.23,1.47-1,1-1.92s-1.31-1-2.08-.18c-2.66-2.09-.06-2.38,1.08-3.18h.28l-.09-.43-.33-1.6c.08-.3.15-.61.22-.91l1.16-.44c0,3.42,1.88,6.62,1.2,10.12h-.52Zm-.86-5.15c-.07-.16-.09-.4-.21-.45s-.31.09-.47.15c.07.16.09.4.21.46S110.05,51.54,110.21,51.48Z"/><path class="cls-2" d="M87.9,7.84c-.76.7-.78,2.31-2.4,2,.14-1.63-.15-1.85-.44-1.46C83.93,9.9,83,8.19,82,8.35c-1.38,0-.29-1.65-1.24-2l.06-2h0a8.1,8.1,0,0,0,4.78,2.13C86.41,6.67,87.59,6.57,87.9,7.84Z"/><path class="cls-2" d="M113.3,40.61l-1.75-2.28c.76-.31.61-2.38,2-1.25S114.24,39.5,113.3,40.61Z"/><path class="cls-5" d="M106.18,21.68c-.64,1.81-1.73,1.24-2.84.52l0,0c.84,0,1.69,0,1.8-1.15Z"/><path class="cls-5" d="M110.39,46.49c.08-.37.28-.57.68-.49Z"/><path class="cls-3" d="M62.37,10.28c2.37.68,4.73,2.4,7.12.06,1.46.75,1.31,2.88,3,3.48l.3,2.83c-2.53-.81-5.42,1.07-7.36-1.77-.07-.1-.69.17-1,.28a19.37,19.37,0,0,1-9.07.88c-.94-.17-1.89,1.14-3,.24A6.3,6.3,0,0,1,57,12.78l.27.05-.16-.16c-.16-.39-.94-.51-.59-1.09.21-.36.61-.87,1.12-.53a2.49,2.49,0,0,0,1.86.45C60.92,12.23,61.89,11.83,62.37,10.28Z"/><path class="cls-3" d="M33.87,38.79c.14.14.28.41.41.4,3.55-.12,2.38,3.51,3.94,5,.43.41,0,1-.62.88-1.18-.16-1.41.49-1.23,1.4.3,1.5.59,2.63-1.75,1.76-.82-.3-1.53.92-.58,1.77.66.59,1.42,1.37.69,1.89-2.86,2.06-3.53,4.7-2.74,8,.12.51-.48.8-1,.94a2.12,2.12,0,0,1-1.36-1.22c1.29-1.42.57-3.3,1.09-4.94.62-2,.39-4.16,1.44-6.08.63-1.16-.28-2-.81-2.89C29.86,43,31.23,39.29,33.87,38.79Zm-.33,6.56c.31-1.39.6-2.51-.48-3.38-.12-.09-.65.06-.69.2A2.32,2.32,0,0,0,33.54,45.35Z"/><path class="cls-3" d="M49.2,18.53c-1,2-2.9,3.64-3,6.22,0,1.27-1.38,1.53-2.48,1.61-1.62.11-2.73,1-2.74,2.52,0,3.35-2,5.06-4.68,6.41a3.1,3.1,0,0,1,.3-1.95c.38-.7,1.35-1.42.55-2.28-.63-.68-1.41.29-2.16.15-.37-.39-.6-1.11-.13-1.22,3.41-.81,3.47-4.47,5.56-6.37,0,.6-.22,1.72.8,1s2.28-1.15,2.76-2.44l0,0c1.43.26,1.74-.88,2.13-1.8A2.7,2.7,0,0,1,49.2,18.53Z"/><path class="cls-5" d="M44,22.19c-.48,1.29-1.79,1.76-2.76,2.44s-.83-.41-.8-1c.19-1.05,1.22-2.28-.71-2.82-.34-.1-.74-.52-.14-.78,2.49-1.07-1.74-.79-.43-2.31A4,4,0,0,1,42,16.31c1.51-.29,3-.67,4.5-1-.07,1-.57,2.38,1.44,1.83.68-.18,1,.42,1.37.92a1.35,1.35,0,0,0-.06.49h0a2.7,2.7,0,0,0-3.1,1.9c-.39.92-.7,2.06-2.13,1.8l-.35-.39-.17.26Zm-2-2.7c-.07.16-.23.36-.18.48s.3.15.46.22c.08-.16.24-.36.19-.47S42.2,19.56,42,19.49Z"/><path class="cls-4" d="M49.29,18c-.33-.5-.69-1.1-1.37-.92-2,.55-1.51-.79-1.44-1.83C51.3,15.92,55,13,55.83,7.81c.09-.55.19-.93.81-1s1,.25,1,.8c-.23,1.73,1.62,2.41,1.86,3.88a2.49,2.49,0,0,1-1.86-.45c-.51-.34-.91.17-1.12.53-.35.58.43.7.59,1.09l-.11.11a6.3,6.3,0,0,0-4.69,3.5l-.67,1.13Z"/><path class="cls-5" d="M35,31.21c.75.14,1.53-.83,2.16-.15.8.86-.17,1.58-.55,2.28a3.1,3.1,0,0,0-.3,1.95l0,0L34.45,35C34.37,33.67,35.47,32.56,35,31.21Z"/><path class="cls-3" d="M34.45,35l1.85.36c-.32,1.36.83,3.65-2.11,3.36C35.27,37.51,32.94,36.1,34.45,35Z"/><path class="cls-3" d="M107.14,71.43l1.32-.11c3.25-1,4.93,1.45,5.45,4.54a16.17,16.17,0,0,1-1.38,10.29c-1.37-2.5-1.19-5.32-1.76-8-.14-.63-.14-1.83-1.32-1.51-.82.22-1,1.12-1.21,1.89s.47.94.88,1.36c2.36,2.46,2.12,4.42-.77,5.89-1.08.55-.81,1.43-.89,2.26l0,2.38,0,1.74-.64.64c-1,.83-2.86-.61-3.53,1.22-.18.49-.38,1-1,.89-.73-.13-.72-.81-.77-1.4-.14-1.51-.26-2.94-2.43-1.74-1,.56-1.31-.53-1.75-1.1-.61-.8-.11-1.14.61-1.53a5.58,5.58,0,0,0,3.1-4.92c.12-1.65,1.09-3.24,1.25-5s1.33-2,2.78-1.22c.55,1.39,1.14,1.58,1.7,0C107.61,75.86,107.13,73.63,107.14,71.43Z"/><path class="cls-4" d="M107.47,92.17c0-.58,0-1.16,0-1.74a10.92,10.92,0,0,1,1.15.12c.94.2,2.15.68,2.27-.78.08-1.12-.86-1.87-2-2a4.87,4.87,0,0,0-1.42.27c.08-.83-.19-1.71.89-2.26,2.89-1.47,3.13-3.43.77-5.89-.41-.42-1-.65-.88-1.36s.39-1.67,1.21-1.89c1.18-.32,1.18.88,1.32,1.51.57,2.67.39,5.49,1.76,8h0c-.53.2-1.19.27-1.27,1s.45.78.92.92c.07,2.12-.25,4.08-2.27,5.31l-1.16-.06Z"/><path class="cls-3" d="M112.13,88.06c-.47-.14-1-.28-.92-.92s.74-.79,1.27-1C112.36,86.78,112.25,87.42,112.13,88.06Z"/><path class="cls-1" d="M56.47,116.53c.17-2.23-2.63-3.17-2.38-5.5,0-.47-.61-1-.09-1.59s1.22-.15,1.83.16a17.31,17.31,0,0,1,3.32,1.74c3,2.35,8.64,1.21,10.93-1.92l-.07-.08,2.44.21c1.48.82,2.39.21,3-1.19h1.11a2.19,2.19,0,0,0,3,1.19H80.7c.17.58.38,1.19,1,1.41A14.33,14.33,0,0,0,93,109.87c3.15-1.63,4.45-1.8,6.14,1.12.36.62,1.23,1,1.86,1.41,0,.39,0,.79,0,1.18-1.82-1-2.91-1-3.9,1.37-.66,1.61-1.52,3.67-3.8,4.25-.62.16-1.1,1.08-1.54,1.73-2.08,3-3.23,6.87-7.2,8.27a.76.76,0,0,0-.38.44c-1.39,4.72-5.27,3.43-8.54,3.51-2.71.06-3.28-2.79-3.59-4.09-1-4.08-4.51-5.22-7.11-7.32S59.29,118.24,56.47,116.53Z"/><path class="cls-1" d="M113.8,131.9l3.73-1c.48,1.49,2.19,1.07,3.25,2.16-2.83,1.39-1.9,5.81-5.56,6.59,0-.19-.06-.43,0-.57C117.79,134.88,117.79,134.88,113.8,131.9Z"/><path class="cls-5" d="M122.28,141.29c1.52-2.31,4.24-1.2,6.35-2,.22-.08.71.28.91.56s0,.65-.42.89C127,142.16,124.93,144.29,122.28,141.29Z"/><path class="cls-3" d="M101,112.4c-.63-.46-1.5-.79-1.86-1.41-1.69-2.92-3-2.75-6.14-1.12A14.33,14.33,0,0,1,81.67,111c-.59-.22-.8-.83-1-1.41,6.91,2.19,11.92-1.24,16.59-5.64.61-.58,1.51-1.21.82-2.23s-1.57-2.06-2.87-1.62c-2.18.74-3.08,0-3.45-2.13-.14-.78-1-1.18-1.62-1.62-1.06-.72-2.13-1.46-2.25-2.91,4.22,1.4,4.62,1.15,4.7-3,0-.19,0-.39,0-.58.64.28,2.34-.49,1.74,1-1.2,3,.77,3,2.58,3.09,1.18.07,1.92,1,2.79,1.25,2.26.67,3.78,4.5,6.87,1.8a3.29,3.29,0,0,1-.17,2.29c-1,.69-.94,1.49-.27,2.37.11,1.14-.72,1.72-1.42,2.38-1.48,1.2-4,1.74-1.89,4.71C103.6,109.79,102.21,111.46,101,112.4Z"/><path class="cls-2" d="M105.13,104.68a6.19,6.19,0,0,0,2.81-.62c1.52-.69,2.82,0,3.84,1.22a1.28,1.28,0,0,1,.07,1.63,1,1,0,0,1-1.28.42c-2.59-1.64-4.42-.14-6.25,1.43Z"/><path class="cls-2" d="M148.09,123.72a2.36,2.36,0,0,1-1.7-1c-.88-1-2.88-1.85-3.27-1.43-2.43,2.62-4-.53-4.54-1.22-1.21-1.61,1-1.78,2-2.35.15.75.37,1.27,1.37,1s2-.15,2.92-.36c2.52-.55,3.53.48,3.3,3C148.12,122.14,148.12,122.93,148.09,123.72Z"/><path class="cls-2" d="M147.94,135.11a2.07,2.07,0,0,1,.65-2c.07.58.15,1.16.22,1.73Z"/><path class="cls-5" d="M42.78,71.48,42.6,61.33l3.78-2.93,0,0c.64-.16,1.38-.2,1.18-1.18h0l1.48.05,1.51-.08L53.45,57c1.95,1.78,4.36.47,6.5,1l1.1,1c-1.25.26-.45,1.11-.48,1.71a33.69,33.69,0,0,0-8.34,2.55l.3-4.42c-3.66.23-4.57,2.62-4.88,5.43-.17,1.44.08,2.69,2.08,2.13l1.84-.12c.13,1.09.66,1.76,1.84,1.75,3,1.47,6.05-.47,9.06.15,0,.75-.23,1.41-1.09,1.51-3,.34-6,1.39-9,0-1.22-.56-2.61-.51-3.13.67-.87,1.94.43,3.77,1,5.6.37,1.29,1.47,1.51,2.62,1.38,3.69-.42,6.76-2.25,9.66-4.42,1.78-1.33,2-3,1.05-5,.33-1.16,1.3-1.67,2.2-1.2,1.32.69,1.19,2.25,1.38,3.54l0,0-.65.82c-.19.72-.37,1.45-.56,2.17-.38,0-.72.12-.79.55,0,.08.19.19.3.29l.46-.86,1.94.24-.9,2c-1.27-.13-2,.88-3,1.4l.15-1V74.75l-.32-.36-.25.64a14.32,14.32,0,0,0-1.3.65c-3.14,2-6,4.73-10.09,4.66-.74,0-1.4.19-1.1,1.2l-3.43-.88c-.26-.36-.63-1-1-.5s.27.74.71.9l2.16,1.62c-.24,2.32-1.69,3.59-3.77,4.3l-1.09-1.32c-.66-2.38-1.33-4.77-2-7.16l0-1.14c1,0,1.13,1.48,2.43,1.41A5.87,5.87,0,0,0,43,75.51l-.21-1.15c1-.49,2.94-.17,3-1.2C45.78,71.71,43.94,71.81,42.78,71.48Z"/><path class="cls-1" d="M92.63,89.87c0,.19,0,.39,0,.58-.08,4.1-.48,4.35-4.7,3h0a1.18,1.18,0,0,0-1.24-1.12l-5.28-.65c-4.26-1-8.61.2-12.88-.49-.41-.07-.9.35-1.35.54-2.46-.11-4.6,1.82-7.16,1.16-1.15-.59-2.41-1.06-3-2.38.29-1.67,1.14-2.62,3-2.29.12.8-.33,1.79.42,2.37s.92-.38,1.36-.65L63,89.71c.1.45.21,1.19.76.87s.2-1-.26-1.36a1.36,1.36,0,0,1,1.28-1.06c.13.74.33,2.12,1.23,1.12,1.5-1.67,3.36-1.2,5.07-1.63,1-.24,2.33.17,2.62-1.38l1-.2c1.67,2,4.27.63,6.2,1.71l.51-1,2.86.56c1.43,1.55,2.55.48,3.69-.43,2-.49,3.36.52,4.65,1.81Z"/><path class="cls-5" d="M70.08,109.42c-1.93-.43-3.35,1.65-5.31,1.07a1.28,1.28,0,0,0-.07-.28c-.66-1.3-3,.51-3.14-1.7-.05-1.31,3.48-4.68,5-5.07,2.16-.56,4.53.19,6.55-1.12l2.35-.09,2.36.4c2.85.53,5.82-.16,8.63,1.28,1.57.81,1.56,1.79,1.47,3.06s-1,1.78-2.23,1.85a17.88,17.88,0,0,1-6.6-1.17c-1.24-.4-2.39-1-3.62-.09h-1C72,106,70.89,107.34,70,109.34Z"/><path class="cls-5" d="M84.23,87.34l-2.86-.56c-2.19-.68-4.23-2.75-6.71-.71l-1,.2c-3.15-.2-6.21,0-8.92,1.89a1.36,1.36,0,0,0-1.28,1.06l-.5.49-1.19.17.06-2.42c.19-1.44-2.3-.76-1.88-2.38,1.35-2.35,3.53-3.14,6.08-3.21l1,0c.65.86.73,2.41,2.43,2,.76,0,1.14-.37,1-1.15l1.31-1.34c.59.4,2.18.33.79,1.67-.36.35-.74.78-.21,1.22A.84.84,0,0,0,73.68,84c1-1.87,2.17-1,3.49-.51,4.31,1.56,4.54,1.36,3.84-2.87l.95-.27c4-1.09,7.4,1,11.06,1.77a2.77,2.77,0,0,1,1.2.84c.92.92.92,1.74-.46,2.17-.75.24-1.53.34-2.3.51a5.17,5.17,0,0,0-3.52-.42A3.61,3.61,0,0,1,85.14,84a1.08,1.08,0,0,0-1.93,0,1,1,0,0,0,.55,1.59C84.85,86,84.81,86.56,84.23,87.34Z"/><path class="cls-3" d="M66,81.87c-2.55.07-4.73.86-6.08,3.21-1.5.37-3,.66-4.48,1.14a3.9,3.9,0,0,1-3.08-.32c-.64-.32-1.62-.66-1.47-1.6s1.12-.9,1.89-1a1.14,1.14,0,0,0,1-.65H49.5l-2.16-1.62a1,1,0,0,0,.32-.4l3.43.88a12,12,0,0,0,9-2.68,25.15,25.15,0,0,1,3.87-2c1-.52,1.69-1.53,3-1.4l.77.16c-.59.87-1,2.12-1.81,2.54C63.05,79.62,64.3,80.69,66,81.87Z"/><path class="cls-3" d="M77.77,102.63l-2.36-.4c0-1.26.82-1.49,1.8-1.86,2.08-.79,1.82-2.28.69-3.7-.39-.5-1.19-.67-1.3-1.45a14.23,14.23,0,0,0,6.09-.93c1.67-.7,2.85.12,3.83,1.36.8,1,1.71,2,.94,3.45-.26.49-.58,1.51-1.09,1-1.72-1.81-2.23-.36-3.26.75-.56.61-1.79.67-2.75.85S78.33,101.47,77.77,102.63Z"/><path class="cls-1" d="M76.6,95.22c.11.78.91,1,1.3,1.45,1.13,1.42,1.39,2.91-.69,3.7-1,.37-1.85.6-1.8,1.86l-2.35.09a3.88,3.88,0,0,0,0-.59c-.11-.44-.2-.92-.75-1-.72-.1-.89.44-1,1H70.11c-1.8-2.14-1-4.27,0-6.39A27.2,27.2,0,0,0,76.6,95.22Z"/><path class="cls-5" d="M67.16,91.67c.45-.19.94-.61,1.35-.54,4.27.69,8.62-.5,12.88.49C77.54,94.49,71.66,95,68,92.79A1.46,1.46,0,0,1,67.16,91.67Z"/><path class="cls-3" d="M70.16,95.31c-1,2.12-1.85,4.25,0,6.39-1.39-.09-3,.57-3.86-1.19-.58-1.26-2-2.47-1.1-4C66.31,94.49,68.39,95.31,70.16,95.31Z"/><path class="cls-3" d="M44.64,85.66,45.73,87c0,.4.05.79.08,1.19l.55,1.17c.12,1.6,0,3.09-2.14,3.06-2.67,0-.81-2.34-1.59-3.34-.49-1.3.54-2.23.81-3.35Z"/><path class="cls-3" d="M38.58,80.88l.56-.58c4.07,1.38,4.34,2.07,1.89,4.83h0c-1.62.56-2.14-.41-2.18-1.72C38.83,82.55,39.09,81.68,38.58,80.88Z"/><path class="cls-3" d="M47.57,88.66l2.75,3.09c.48.53.92,1.12.47,1.84a1.91,1.91,0,0,1-1.78.87,1.5,1.5,0,0,1-1.43-1.6C47.52,91.59,47.57,90.31,47.57,88.66Z"/><path class="cls-3" d="M57,90.45c.58,1.32,1.84,1.79,3,2.38-.36,1.35-1.32,1.39-2.25.8C56.56,92.87,56,91.81,57,90.45Z"/><path class="cls-5" d="M43.44,85.71c-.27,1.12-1.3,2.05-.81,3.35-1.76-.82-.86-2.7-1.59-3.93h0A3.27,3.27,0,0,1,43.44,85.71Z"/><path class="cls-3" d="M74.37,107.56h1c0,.26,0,.53,0,.8-.6,1.4-1.51,2-3,1.19A2.08,2.08,0,0,1,74.37,107.56Z"/><path class="cls-3" d="M61.82,87.46l-.06,2.42c-.44.27-.76,1.1-1.36.65S60.1,89,60,88.16A2.12,2.12,0,0,1,61.82,87.46Z"/><path class="cls-3" d="M79.58,109.55a2.19,2.19,0,0,1-3-1.19A3,3,0,0,1,79.58,109.55Z"/><path class="cls-3" d="M71.27,101.71c.14-.54.31-1.08,1-1,.55.08.64.56.75,1Z"/><path class="cls-3" d="M86.67,92.27a1.18,1.18,0,0,1,1.24,1.12A1.24,1.24,0,0,1,86.67,92.27Z"/><path class="cls-5" d="M46.36,89.34l-.55-1.17Z"/><path class="cls-5" d="M32.7,73.2l-.42-3c2.36-.19,4.92.22,6.79-1.8.5.74.25,1.65.37,2.51l-3.82,2.61-2.88.33Z"/><path class="cls-1" d="M32.74,73.87l2.88-.33c.07,2.11-2,1.29-2.89,2.11l-.68-.74Z"/><path class="cls-4" d="M32.73,75.65c.88-.82,3,0,2.89-2.11l3.82-2.61c.35,1.16,1.19,2.58-.47,3.23-1.47.57-2.38,1.79-1.63,2.72s2.07-.12,2.73-1.16c1,.89.45,3.06,2.58,2.78.66,2.39,1.33,4.78,2,7.16l-1.2,0A3.27,3.27,0,0,0,41,85.13c2.45-2.76,2.18-3.45-1.89-4.83,0-.52,0-1.22-.47-1.29-2.29-.34-3.72-2.46-6-2.82A4.89,4.89,0,0,1,32.73,75.65Z"/><path class="cls-5" d="M102.7,56.6c2.79,4.29,2.76,9,1.89,13.77-1.3,2.18-3.48,3.67-4.66,6a2,2,0,0,1-2.07.82c-4.77-.35-9.56-.62-13.34-4.14-.81-.75-1.36-.61-1.72.4-1.53-1.37-3.66-2.14-4.42-4.3,1.23-1.55,1.64-3-.24-4.44-1.06-.81-1-2.08-.89-3.27,2.1,1,3.26,3.46,5.88,3.55,4,.67,7.94,1.26,11.91,0a4.7,4.7,0,0,0,3-3l1.06-.14c1.79-.72,1.53-1.54.14-2.44,0-.73.75-1.53-.18-2.19a1.52,1.52,0,0,1,1.33-1.47l1.13.26,0,0a1,1,0,0,0,1.21.6Z"/><path class="cls-4" d="M82.8,73.43c.36-1,.91-1.16,1.72-.41,3.78,3.52,8.57,3.79,13.34,4.14a2,2,0,0,0,2.07-.82c1.18-2.3,3.36-3.79,4.66-6l1.1-.1c-.63,1.92-1.38,3.8-.11,5.82a1.66,1.66,0,0,1-.45,1.9c-1.45-.78-2.63-.48-2.78,1.22s-1.13,3.37-1.25,5A5.58,5.58,0,0,1,98,89.15c-.72.39-1.22.73-.61,1.53.44.57.74,1.66,1.75,1.1,2.17-1.2,2.29.23,2.43,1.74.05.59,0,1.27.77,1.4.58.11.78-.4,1-.89.67-1.83,2.49-.39,3.53-1.22l.65,1.2-.15,1.14a1.09,1.09,0,0,0-.41,1.24l-.31.63c-3.09,2.7-4.61-1.13-6.87-1.8C98.87,95,98.13,94,97,94c-1.81-.11-3.78-.1-2.58-3.09.6-1.5-1.1-.73-1.74-1l-.06-1.15c.29-1.26-.65-2.08-1.11-3.07.77-.17,1.55-.27,2.3-.51,1.38-.43,1.38-1.25.46-2.17a2.77,2.77,0,0,0-1.2-.84c-3.66-.76-7.11-2.86-11.06-1.77,1.92-3.3,4.55-1.31,6.81-.73a13.24,13.24,0,0,0,8.14,0c-4.86-.35-9.27-2.19-13.76-3.74l-.24-1.07Z"/><path class="cls-5" d="M51.74,49a4.06,4.06,0,0,1,.74-2.38c.92-1.91,2.66-3.56,1.94-6,.11-.37.21-.74.31-1.12,1.39-.71,2.85-1.35,2.36-3.38a1.89,1.89,0,0,1,1.1-2.42,2.46,2.46,0,0,1,2.72.48c.8.7,1.47,1.58,2.61,1.77h0c.57.81.4,2.18,1.82,2.33.21,2.43,2.17,1.57,3.51,1.86a2.24,2.24,0,0,0,.06.52c1.56,2.53,3.49,2.49,6.48-.13l1.16-.11c.79.12,1.12-.23,1-1l.73-.29a1.5,1.5,0,0,0,1.84-.24l1.17,0c.23.38.47.75.7,1.12a3.09,3.09,0,0,0,1.38,3c1,.69,2.21,1.51,1,3l-2.39.8-2.36.41c-1.67-.77-1.75-4.06-5.22-2.38-1.7.82-5-.4-7.07-2.13-1.94-1.58-4.48-2.28-6.2-.51s-4,3.18-5.75,5c-1.42,1.45-1.52,2.46.59,3.15a2.76,2.76,0,0,1-3.17,1.28,1.08,1.08,0,0,0-1.73.2l-1.18.11C50.52,50.92,51.71,50.29,51.74,49Z"/><path class="cls-3" d="M63.52,35.89c-1.14-.19-1.81-1.07-2.61-1.77a2.46,2.46,0,0,0-2.72-.48,1.89,1.89,0,0,0-1.1,2.42c.49,2-1,2.67-2.36,3.38-2.47-1.39-2.6-3.78-.19-5.65a5.94,5.94,0,0,1,2.89-1.39c3.09-.23,6-.65,8.39-2.92,1.41-1.33,1.64-.11,1.91,1.13C68.51,34.17,66.32,35.24,63.52,35.89Z"/><path class="cls-4" d="M99.82,48.23c1.12,0,1.88.36,1.8,1.65-2.63.26-1.08,2.64-1.92,3.8-2.36,0-4.74.18-7-.64l-.59,0-.62-2.32c1.5-.25,3.71,0,4.35-.85,1.18-1.62-2.17-1.82-2-3.58-.39-.89-1.28-1.52-1.34-2.58,2.63-.18,3.92,1.85,5.53,3.36l0,0A1.6,1.6,0,0,0,99.82,48.23Z"/><path class="cls-3" d="M76.56,40.36l-1.16.11L74.8,40c.32-3.91,2.25-7.41,2.65-11.14,4.19,2.28,4.37,6,3.9,10l-1.17,0c-.82-1.54-1.31-.47-1.84.24l-.72.29A1.38,1.38,0,0,0,76.56,40.36Z"/><path class="cls-4" d="M72.45,13.82c-1.65-.6-1.5-2.73-3-3.48.09-.87-.47-1.28-1.13-1.64,1.81,0,3.68-1.13,5.38.36.75,2.32,1.85,2.83,3.47.68l1.14-.44c0,.63,0,1.25,0,1.87L73.66,13.9Z"/><path class="cls-5" d="M42.24,60.09l.3-2.78c.43-.19,1.16-.29,1.25-.58.78-2.48,1.88-4.41,5-3.72-.23.81-.45,1.62-.68,2.43l-.56,1.18v.61h0c-.94-.16-1.16.41-1.18,1.18l0,0C44.55,57.86,43.52,59.28,42.24,60.09Z"/><path class="cls-4" d="M84.4,46c1.24-1.49,0-2.31-1-3a3.09,3.09,0,0,1-1.38-3c1.23.47,1.61,2.51,3.45,1.85.36,1.27,1.4,1.1,2.36,1.14s2.15-.26,3,.65c-.49.59-1.3,1-1.19,2A19.43,19.43,0,0,1,84.4,46Z"/><path class="cls-3" d="M90.86,43.61c-.85-.91-2-.6-3-.65s-2,.13-2.36-1.14c2.36,0,4.73-.06,7.1,0A5.27,5.27,0,0,1,98,47.05c-1.61-1.51-2.9-3.54-5.53-3.36Z"/><path class="cls-5" d="M105.13,78a1.66,1.66,0,0,0,.45-1.9c-1.27-2-.52-3.9.11-5.82.14-.64-.17-1.38.58-2,1,.88.37,2.21.87,3.17,0,2.2.47,4.43-.31,6.58C106.27,79.57,105.68,79.38,105.13,78Z"/><path class="cls-4" d="M48.78,53c-3.11-.69-4.21,1.24-5,3.72-.09.29-.82.39-1.25.58-.21-.3-.67-.77-.6-.87,1.39-2,1.7-4.75,3.83-6.33L49,52.55A3.66,3.66,0,0,0,48.78,53Z"/><path class="cls-5" d="M99.7,53.68c.84-1.16-.71-3.54,1.92-3.8a11.13,11.13,0,0,1,2.15,4.91c.23,1,.14,1.72-1.07,1.81l0,0c-.16-.69-.6-.81-1.21-.6l0,0c.22-1-.43-1.16-1.16-1.25l.06,0Z"/><path class="cls-3" d="M101.23,23.47a1.81,1.81,0,0,1,1,2.22,7.74,7.74,0,0,1-1.17.12c-1.19-.07-2.47,2.17-3.29.5a4.21,4.21,0,0,1,1.15-4.76l1.38,1.58c-.27.33-.45.71.09.88s.72-.17.85-.59Z"/><path class="cls-5" d="M90.89,17.45l.12-.69c2.69-2.43,4.74-.39,6.89,1-.77,2-2.31,1.15-3.48.74S92.19,17.39,90.89,17.45Z"/><path class="cls-4" d="M100.32,23.13l-1.38-1.58c0-1.21-.54-2.44.07-3.64L99,18l.82.06c1.87-1.37,2.1.69,3.43,1.55-2.88.45-2.66,2.09-2,3.88l0,0Z"/><path class="cls-3" d="M107,45.43a10.33,10.33,0,0,1-.51-1.67c-.15-.92-.63-2.45.35-2.56a3.8,3.8,0,0,1,3.06,1.64c.74,1.37-1.3,1.58-1.85,2.53Z"/><path class="cls-3" d="M68.92,40.6a2.24,2.24,0,0,1-.06-.52c.41-1.95-1.52-1.67-2.33-2.45,3-1.59,4.06,1.42,6,2.44C71.6,42.23,70.07,40.12,68.92,40.6Z"/><path class="cls-4" d="M68.92,40.6c1.15-.48,2.68,1.63,3.58-.53L74.8,40l.6.52C72.41,43.09,70.48,43.13,68.92,40.6Z"/><path class="cls-3" d="M104.6,27.62c.05,1.79-.95,3.51-.34,5.34-1.66-.12-1.91-1.33-1.69-2.54s-.28-2.32-.41-3.48Z"/><path class="cls-3" d="M54.42,40.56c.72,2.45-1,4.1-1.94,6-.73-.35-1.52-.78-.82-1.71C52.7,43.5,52.92,41.62,54.42,40.56Z"/><path class="cls-4" d="M42.78,71.48c1.16.33,3,.23,2.94,1.68,0,1-2,.71-3,1.2C42.75,73.4,42.77,72.44,42.78,71.48Z"/><path class="cls-3" d="M49,52.55l-3.19-2.44c1.25-2.69,2.4.52,3.61.07,0,.61,0,1.22,0,1.83l-.35.51Z"/><path class="cls-3" d="M107.89,35.33c-.2,1.36,1.35,2.18,1.12,3.56a2.71,2.71,0,0,1-2.77-2.83A1.55,1.55,0,0,1,107.89,35.33Z"/><path class="cls-4" d="M66.53,37.63c.81.78,2.74.5,2.33,2.45-1.34-.29-3.3.57-3.51-1.86l.59-.6Z"/><path class="cls-3" d="M49.29,18l2.33-.63c.09.77.84,1,1.21,1.54a1.24,1.24,0,0,1-.43,1.77c-.69.43-1-.11-1.12-.78-.24-1-1.45-.81-2.05-1.41A1.35,1.35,0,0,1,49.29,18Z"/><path class="cls-4" d="M107.89,35.33a1.55,1.55,0,0,0-1.65.73,2.26,2.26,0,0,1-1.77-2.53C105.6,34.15,108,32.35,107.89,35.33Z"/><path class="cls-4" d="M43,75.51a5.87,5.87,0,0,1,2.16,3.26c-1.3.07-1.43-1.37-2.43-1.41C42.07,76.64,42.72,76.1,43,75.51Z"/><path class="cls-3" d="M42.24,60.09c1.28-.81,2.31-2.23,4.14-1.69L42.6,61.33Z"/><path class="cls-4" d="M107,45.43l1-.06,1.18,1.57c-.07.3-.14.61-.22.91A2.15,2.15,0,0,1,107,45.43Z"/><path class="cls-4" d="M104.6,27.62l-2.44-.68c0-.44.09-.88.14-1.32l2.16.08.64.28-.57,1.61Z"/><path class="cls-4" d="M49.42,52c0-.61,0-1.22,0-1.83.75-.49,1.34-1.26,2.36-1.23,0,1.34-1.22,2-1.82,3l0,0A2,2,0,0,1,49.42,52Z"/><path class="cls-3" d="M65.94,37.62l-.59.6c-1.42-.15-1.25-1.52-1.82-2.33A2.83,2.83,0,0,1,65.94,37.62Z"/><path class="cls-3" d="M99.82,48.23a1.6,1.6,0,0,1-1.76-1.14C98.89,47.1,99.59,47.3,99.82,48.23Z"/><path class="cls-5" d="M108.09,53.65c.71.24,1,.69.72,1.43C108,54.89,107.87,54.36,108.09,53.65Z"/><path class="cls-4" d="M109.34,49.45l.09.43h-.28A1.34,1.34,0,0,1,109.34,49.45Z"/><path class="cls-1" d="M99.85,18,99,18c-.21-.46.1-.7.41-.94Z"/><polygon class="cls-5" points="103.34 22.2 103.18 22.08 103.31 22.23 103.34 22.2"/><path class="cls-3" d="M104.53,27.59,105.1,26C106.91,27.22,104.55,27,104.53,27.59Z"/><path class="cls-4" d="M82,8.35c1-.16,2,1.55,3.11,0,.29-.39.58-.17.44,1.46,1,2.27.31,3.42-2.18,3.46-1.34,0-2.19,1.86-3.93.79.54-1.06,2.1-2.33,0-3.35C79.79,9.46,81.4,9.48,82,8.35Z"/><path class="cls-5" d="M82,8.35c-.55,1.13-2.16,1.11-2.59,2.37l-1,.45c0-.62,0-1.24,0-1.87-.14-1.21.64-2,1.29-2.84l1.07-.08C81.66,6.7,80.57,8.3,82,8.35Z"/><polygon class="cls-1" points="89.68 17.46 89.52 17.32 89.67 17.47 89.68 17.46"/><path class="cls-5" d="M77.21,9.74c-1.62,2.15-2.72,1.64-3.47-.68A4.45,4.45,0,0,1,77.21,9.74Z"/><path class="cls-4" d="M57.09,12.67l.16.16L57,12.78Z"/><path class="cls-2" d="M33.54,45.35a2.32,2.32,0,0,1-1.17-3.18c0-.14.57-.29.69-.2C34.14,42.84,33.85,44,33.54,45.35Z"/><path class="cls-2" d="M42,19.49c.17.07.42.1.47.23s-.11.31-.19.47c-.16-.07-.41-.1-.46-.22S42,19.65,42,19.49Z"/><path class="cls-3" d="M44,22.19l-.55-.09.17-.26.35.39Z"/><path class="cls-4" d="M106.17,101.68c-.67-.88-.73-1.68.27-2.37C106.6,100.13,107.17,101,106.17,101.68Z"/><path class="cls-2" d="M107.48,94l-.65-1.2.64-.64,1.23,1.14Z"/><path class="cls-2" d="M106.92,96.39a1.09,1.09,0,0,1,.41-1.24C108.24,95.91,107.69,96.18,106.92,96.39Z"/><path class="cls-5" d="M107.46,88.05a4.87,4.87,0,0,1,1.42-.27c1.17.12,2.11.87,2,2-.12,1.46-1.33,1-2.27.78a10.92,10.92,0,0,0-1.15-.12Z"/><path class="cls-4" d="M74.37,107.56a2.08,2.08,0,0,0-1.92,2L70,109.34C70.89,107.34,72,106,74.37,107.56Z"/><path class="cls-1" d="M49,52.55l.11,0c.3-.21.59-.43.88-.65l0,0,1.18-.11c.26.48.51,1.05,1.19.91s.52-.66.54-1.11A2.76,2.76,0,0,0,56,50.32l2.81-.25c3.94,1,6.81,4.13,10.65,5.34-1.43.35-2.09,1.11-1.24,2.54.54.9.43,1.37-.63,1.71s-2,1.57-1.74,2.4c.4,1.39,1.84.41,2.84.5.29,0,.59,0,.88,0l0,1.18c-5.4-.09-10.44,2.32-15.83,2.27a.77.77,0,0,0-.27.11l-1.92.14-1.84.12c0-.48.07-1,.11-1.42l.66-.62a2.62,2.62,0,0,0,1.73-1.1,33.69,33.69,0,0,1,8.34-2.55c.56.91,1.17.32,1.77.06,1,0,2-.08,2.27-1.3s-.88-1.48-1.62-2a5.28,5.28,0,0,0-3.6-.76c-2,.4-4.06-1.85-5.94.29l-2.93.25c0-1.72-1.14-1.81-2.42-1.76.23-.81.45-1.62.68-2.43A3.66,3.66,0,0,1,49,52.55Z"/><path class="cls-2" d="M69.59,63.73c0-.39,0-.79,0-1.18.56-2.09,1.67-3.54,4.07-3.48.14,1.19,1.29,1,2,1.45l.18.82a2.24,2.24,0,0,0,.46,2.76c.2,1.88,1.36,3.37,2.12,5,.76,2.16,2.89,2.93,4.42,4.3,0,.48.08,1,.11,1.44a.33.33,0,0,0-.29.11l-1.55-.86c-3.41-2.51-9.69-2.82-13.21-.64l-1.94-.24,0,0c.19-.73.37-1.46.56-2.19a.84.84,0,0,0,.65-.81l0,0C68.87,68.46,70.43,66.54,69.59,63.73Z"/><path class="cls-2" d="M63.56,68c.93,1.92.73,3.62-1.05,5-2.9,2.17-6,4-9.66,4.42-1.15.13-2.25-.09-2.62-1.38-.54-1.83-1.84-3.66-1-5.6.52-1.18,1.91-1.23,3.13-.67,3,1.36,6,.31,9,0,.86-.1,1.06-.76,1.09-1.51Z"/><path class="cls-3" d="M63.56,68l-1.09.18c-3-.62-6.07,1.32-9.06-.15,0-.63.05-1.26.08-1.89a.77.77,0,0,1,.27-.11c5.39,0,10.43-2.36,15.83-2.27.84,2.81-.72,4.73-2.45,6.58-.19-1.29-.06-2.85-1.38-3.54C64.86,66.3,63.89,66.81,63.56,68Zm3.08-2.11.19.11v-.2Z"/><path class="cls-4" d="M52.23,63.23a2.62,2.62,0,0,1-1.73,1.1c-.47-.11-1-.74-1.38,0-.18.39.36.53.72.62,0,.47-.07.94-.11,1.42-2,.56-2.25-.69-2.08-2.13.31-2.81,1.22-5.2,4.88-5.43Z"/><path class="cls-4" d="M67.86,73.47c3.52-2.18,9.8-1.87,13.21.64l-.37.39c-3.59-2.36-7.34.67-11-.27-.34-.08-.94.87-1.41,1.34l-.56.07L67,75.48Z"/><path class="cls-4" d="M64,76.88a25.15,25.15,0,0,0-3.87,2,12,12,0,0,1-9,2.68c-.3-1,.36-1.22,1.1-1.2,4.12.07,7-2.63,10.09-4.66a14.32,14.32,0,0,1,1.3-.65h0l.6.82Z"/><path class="cls-3" d="M59.39,56.66a5.28,5.28,0,0,1,3.6.76c.74.54,1.94.68,1.62,2s-1.25,1.32-2.27,1.3c0-.94-.25-1.63-1.29-1.77l-1.1-1C59.76,57.51,59.58,57.08,59.39,56.66Z"/><path class="cls-4" d="M59.39,56.66c.19.42.37.85.56,1.27-2.14-.51-4.55.8-6.5-1C55.33,54.81,57.43,57.06,59.39,56.66Z"/><path class="cls-4" d="M48.1,55.44c1.28,0,2.44,0,2.42,1.76L49,57.29l-1.47-.67Z"/><path class="cls-4" d="M61.05,59c1,.14,1.33.83,1.29,1.77-.6.26-1.21.85-1.77-.06C60.6,60.08,59.8,59.23,61.05,59Z"/><path class="cls-4" d="M53.49,66.11c0,.63-.06,1.26-.08,1.89-1.18,0-1.71-.66-1.84-1.75Z"/><path class="cls-2" d="M65.92,73.23l-.46.86c-.11-.1-.31-.21-.3-.29.07-.43.41-.54.79-.55Z"/><path class="cls-4" d="M46.34,58.42c0-.77.24-1.34,1.18-1.18C47.72,58.22,47,58.26,46.34,58.42Z"/><path class="cls-4" d="M47.34,81.06c-.44-.16-1.09-.43-.71-.9s.77.14,1,.5A1,1,0,0,1,47.34,81.06Z"/><path class="cls-4" d="M63.58,75l.25-.64.32.36-.6.27Z"/><path class="cls-1" d="M47.54,56.62l1.47.67-1.48-.06Z"/><path class="cls-2" d="M63.55,75l.6-.27v1.09Z"/><path class="cls-3" d="M67.16,70.26a.84.84,0,0,1-.65.81Z"/><path class="cls-4" d="M84.23,87.34c.58-.78.62-1.37-.47-1.75A1,1,0,0,1,83.21,84a1.08,1.08,0,0,1,1.93,0,3.61,3.61,0,0,0,2.8,1.28c0,.56,0,1.12,0,1.68C86.78,87.82,85.66,88.89,84.23,87.34Z"/><path class="cls-3" d="M64.73,88.16c2.71-1.87,5.77-2.09,8.92-1.89C73.36,87.82,72,87.41,71,87.65c-1.71.43-3.57,0-5.07,1.63C65.06,90.28,64.86,88.9,64.73,88.16Z"/><path class="cls-3" d="M74.66,86.07c2.48-2,4.52,0,6.71.71l-.51,1C78.93,86.7,76.33,88.08,74.66,86.07Z"/><path class="cls-3" d="M87.92,86.91c0-.56,0-1.12,0-1.68a5.17,5.17,0,0,1,3.52.42c.46,1,1.4,1.81,1.11,3.07C91.28,87.43,89.89,86.42,87.92,86.91Z"/><path class="cls-3" d="M63,89.71l.5-.49c.46.4,1,1,.26,1.36S63.05,90.16,63,89.71Z"/><path class="cls-1" d="M67.73,75.64l.56-.07c2.47.79,5.17,1.05,7.35-.11,1.9-1,3-1,4.23.57.4.53.91.74,1.49.2l1.13-.39.66.09c4.49,1.55,8.9,3.39,13.76,3.74a13.24,13.24,0,0,1-8.14,0c-2.26-.58-4.89-2.57-6.81.73l-.95.27-2-.24a5.78,5.78,0,0,0-3.61-.57l-3.47,0c-1.6.76-3.49.77-4.89,2l-1,0c-1.72-1.18-3-2.25-.1-3.69C66.74,77.76,67.14,76.51,67.73,75.64Z"/><path class="cls-4" d="M79,80.39l2,.24c.7,4.23.47,4.43-3.84,2.87-1.32-.48-2.53-1.36-3.49.51a.84.84,0,0,1-1.29.23c-.53-.44-.15-.87.21-1.22,1.39-1.34-.2-1.27-.79-1.67l.12-1.51,3.47,0c.56,1.3,1.4,2.52,2.88,2.52C79.29,82.33,78.86,81.1,79,80.39Z"/><path class="cls-3" d="M71.93,79.84l-.12,1.51c-.44.44-.87.89-1.3,1.34a1.29,1.29,0,0,0-1,1.15c-1.7.41-1.78-1.14-2.43-2C68.44,80.61,70.33,80.6,71.93,79.84Z"/><path class="cls-4" d="M69.47,83.84a1.29,1.29,0,0,1,1-1.15C70.61,83.47,70.23,83.83,69.47,83.84Z"/><path class="cls-1" d="M75.8,61.34l-.18-.82.87-1.69.26-1.6c.8-2.14.55-2.34-2.64-2.09l-1.59,0,0-.76,4.13-.69c1.53.41,3.93.25,3.6-1.17-.59-2.58.92-3.92,1.79-5.71L84.4,46a19.43,19.43,0,0,0,5.27-.42l4.17.7c-.2,1.76,3.15,2,2,3.58-.64.88-2.85.6-4.35.85-1.29.06-3.2-.39-3.12,1.5.06,1.49,1.86.64,2.88.85a3.58,3.58,0,0,0,.86,0l.59,0,0,1.3c-1.75.06-3.51,0-5.24.23a2,2,0,0,0-1.68,1.81c-.14.69.21,1.29.86,1.25,3.3-.2,6.4,1,9.61,1.33.47.94,1.38,1.7,1.14,2.91L95.59,62c-4.29,1.65-8.7,1-13.1.7-1.19,0-2.09-.44-2.3-1.8-.16-1-.6-2.19-1.71-2.05-1.33.17-1.23,1.53-1.23,2.61s-.17,2.46.89,3.27c1.88,1.43,1.47,2.89.24,4.44-.76-1.65-1.92-3.14-2.12-5C76.63,63.09,76.9,62.1,75.8,61.34Z"/><path class="cls-3" d="M82.49,62.65c4.4.27,8.81,1,13.1-.7-.18,1-.36,2-.55,3-4,1.23-7.94.64-11.91,0C82.92,64.19,82.71,63.42,82.49,62.65Z"/><path class="cls-3" d="M97.33,61.87c.24-1.21-.67-2-1.14-2.91.36-2.72-2.34-3.1-3.55-4.62l0-1.3c2.29.82,4.67.63,7,.64l.75,1.1-3.68.16c.53,1.2.76,2.39,2.32,2.32.93.66.17,1.46.18,2.19s-.09,1.63-.14,2.44L98.07,62Z"/><path class="cls-4" d="M82.49,62.65c.22.77.43,1.54.64,2.31-2.62-.09-3.78-2.6-5.88-3.55,0-1.08-.1-2.44,1.23-2.61,1.11-.14,1.55,1,1.71,2.05C80.4,62.21,81.3,62.6,82.49,62.65Z"/><path class="cls-4" d="M99.09,57.26c-1.56.07-1.79-1.12-2.32-2.32l3.68-.16-.06,0,0,1A1.52,1.52,0,0,0,99.09,57.26Z"/><path class="cls-4" d="M97.33,61.87l.74.16a4.7,4.7,0,0,1-3,3c.19-1,.37-2,.55-3Z"/><path class="cls-4" d="M99.13,61.89c.05-.81.09-1.62.14-2.44C100.66,60.35,100.92,61.17,99.13,61.89Z"/><path class="cls-3" d="M100.42,55.79l0-1c.73.09,1.38.26,1.16,1.25Z"/><path class="cls-3" d="M101.53,56c.61-.21,1-.09,1.21.6A1,1,0,0,1,101.53,56Z"/><path class="cls-5" d="M83.15,75.93l-.66-.09c0-.29.09-.58.13-.87a.33.33,0,0,1,.29-.11Z"/><path class="cls-2" d="M58.81,50.07,56,50.32c-2.11-.69-2-1.7-.59-3.15,1.79-1.81,4-3.13,5.75-5s4.26-1.07,6.2.51c2.11,1.73,5.37,3,7.07,2.13,3.47-1.68,3.55,1.61,5.22,2.38l-1.21,1.16c-1.23-.26-1.7.5-2.17,1.45S74.91,51.59,74,51c-1.24-.72-2.13-.22-3.22.11-.81.24-2,.39-2.51-.27-1.22-1.42-2.77-1-4.23-1.15C62.25,49.67,60.47,49.07,58.81,50.07Z"/><path class="cls-3" d="M78.44,48.36l1.21-1.16L82,46.79c-.87,1.79-2.38,3.13-1.79,5.71.33,1.42-2.07,1.58-3.6,1.17C76.8,51.76,78.53,50.37,78.44,48.36Z"/><path class="cls-4" d="M52.83,51.6c0,.45,0,1-.54,1.11s-.93-.43-1.19-.91A1.08,1.08,0,0,1,52.83,51.6Z"/><path class="cls-4" d="M78.34,39.06c.53-.71,1-1.78,1.84-.24A1.5,1.5,0,0,1,78.34,39.06Z"/><path class="cls-4" d="M76.56,40.36a1.38,1.38,0,0,1,1.06-1C77.68,40.13,77.35,40.48,76.56,40.36Z"/><path class="cls-3" d="M92.08,53a3.58,3.58,0,0,1-.86,0c-1-.21-2.82.64-2.88-.85-.08-1.89,1.83-1.44,3.12-1.5C91.67,51.47,91.88,52.25,92.08,53Z"/><path class="cls-5" d="M93.84,46.27l-4.17-.7c-.11-1,.7-1.37,1.19-2l1.64.08C92.56,44.75,93.45,45.38,93.84,46.27Z"/><path class="cls-5" d="M100.32,23.13l.94.29c-.13.42-.43.72-.85.59S100.05,23.46,100.32,23.13Z"/><path class="cls-5" d="M50,51.87c-.29.22-.58.44-.88.65l.35-.51A2,2,0,0,0,50,51.87Z"/><path class="cls-3" d="M58.81,50.07c1.66-1,3.44-.4,5.18-.35,2.38,2.37,4.86,4.56,8.5,4.64l0,.76-.61.37-2.19.17-.26-.26C65.62,54.2,62.75,51.06,58.81,50.07Z"/><path class="cls-3" d="M73.64,59.07c-2.4-.06-3.51,1.39-4.07,3.48-.29,0-.59,0-.88,0-1-.09-2.44.89-2.84-.5-.24-.83.6-2.05,1.74-2.4s1.17-.81.63-1.71c-.85-1.43-.19-2.19,1.24-2.54l.26.25c.59.89-1.87,3.46,1.54,2.81l2.37.05A3.37,3.37,0,0,0,73.64,59.07Z"/><path class="cls-3" d="M49.84,65c-.36-.09-.9-.23-.72-.62.35-.74.91-.11,1.38,0Z"/><path class="cls-4" d="M73.64,59.07a3.37,3.37,0,0,1,0-.55,6,6,0,0,1,2.86.31l-.87,1.69C74.93,60.08,73.78,60.26,73.64,59.07Z"/><path class="cls-4" d="M75.8,61.34c1.1.76.83,1.75.46,2.76A2.24,2.24,0,0,1,75.8,61.34Z"/><path class="cls-4" d="M82.62,75c0,.29-.09.58-.13.87l-1.13.39L80.7,74.5l.37-.39Z"/><polygon class="cls-5" points="66.64 65.86 66.83 65.77 66.83 65.97 66.64 65.86"/><path class="cls-3" d="M80.7,74.5l.66,1.73c-.58.54-1.09.33-1.49-.2-1.24-1.62-2.33-1.59-4.23-.57-2.18,1.16-4.88.9-7.35.11.47-.47,1.07-1.42,1.41-1.34C73.36,75.17,77.11,72.14,80.7,74.5Z"/><path class="cls-3" d="M79,80.39c-.15.71.28,1.94-.73,2-1.48,0-2.32-1.22-2.88-2.52A5.78,5.78,0,0,1,79,80.39Z"/><path class="cls-5" d="M72.49,54.36c-3.64-.08-6.12-2.27-8.5-4.64,1.46.16,3-.27,4.23,1.15.56.66,1.7.51,2.51.27,1.09-.33,2-.83,3.22-.11,1,.56,1.87-.3,2.32-1.22s.94-1.71,2.17-1.45c.09,2-1.64,3.4-1.82,5.31Z"/><path class="cls-5" d="M92.64,54.34c1.21,1.52,3.91,1.9,3.55,4.62-3.21-.37-6.31-1.53-9.61-1.33-.65,0-1-.56-.86-1.25a2,2,0,0,1,1.68-1.81C89.13,54.38,90.89,54.4,92.64,54.34Z"/><path class="cls-2" d="M76.49,58.83a6,6,0,0,0-2.86-.31l-2.37-.05c1-.81.56-2,.65-3l.61-.37,1.59,0a2.83,2.83,0,0,0,2.64,2.09Z"/><path class="cls-5" d="M76.75,57.23a2.83,2.83,0,0,1-2.64-2.09C77.3,54.89,77.55,55.09,76.75,57.23Z"/><path class="cls-5" d="M71.91,55.49c-.09,1,.39,2.17-.65,3-3.41.65-1-1.92-1.54-2.81Z"/><text class="cls-6" transform="translate(378.4 180.87)">Publicista</text></svg>